<mxfile host="app.diagrams.net" modified="2022-04-12T23:33:45.626Z" agent="5.0 (Windows NT 10.0; Win64; x64) AppleWebKit/537.36 (KHTML, like Gecko) Chrome/100.0.4896.75 Safari/537.36" etag="QbeWwQGh2LUVeRPuDh4C" version="17.4.3" type="github" pages="3">
  <diagram id="eQO_NE76P9t9re5ZUtXt" name="Page-3">
    <mxGraphModel dx="1483" dy="826" grid="1" gridSize="10" guides="1" tooltips="1" connect="1" arrows="1" fold="1" page="1" pageScale="1" pageWidth="850" pageHeight="1100" math="0" shadow="0">
      <root>
        <mxCell id="0" />
        <mxCell id="1" parent="0" />
        <mxCell id="h6YRAmz9iDq2OZR4_CSM-1" value="&lt;b&gt;MDP-1 P(s`|s,a)&lt;/b&gt;" style="rounded=1;whiteSpace=wrap;html=1;" vertex="1" parent="1">
          <mxGeometry x="330" y="10" width="120" height="60" as="geometry" />
        </mxCell>
        <mxCell id="h6YRAmz9iDq2OZR4_CSM-2" value="&lt;p class=&quot;MsoNormal&quot;&gt;&lt;b&gt;&lt;span style=&quot;font-family: &amp;#34;symbol&amp;#34;&quot;&gt;&lt;font style=&quot;font-size: 18px&quot;&gt;p&lt;/font&gt;&lt;/span&gt;&lt;sub&gt;&lt;font style=&quot;font-size: 10px&quot;&gt;MF&lt;/font&gt;&lt;/sub&gt;&lt;span style=&quot;line-height: 107%&quot;&gt;&lt;font style=&quot;font-size: 13px&quot;&gt;(a|s)&lt;/font&gt;&lt;/span&gt;&lt;/b&gt;&lt;/p&gt;" style="rounded=1;whiteSpace=wrap;html=1;" vertex="1" parent="1">
          <mxGeometry x="100" y="200" width="120" height="60" as="geometry" />
        </mxCell>
        <mxCell id="h6YRAmz9iDq2OZR4_CSM-3" value="&lt;b&gt;Real-Exp Buffer&lt;/b&gt;" style="rounded=1;whiteSpace=wrap;html=1;fontSize=13;" vertex="1" parent="1">
          <mxGeometry x="300" y="200" width="180" height="60" as="geometry" />
        </mxCell>
        <mxCell id="h6YRAmz9iDq2OZR4_CSM-4" value="&lt;p class=&quot;MsoNormal&quot;&gt;&lt;b&gt;&lt;span style=&quot;line-height: 107% ; font-family: &amp;#34;symbol&amp;#34;&quot;&gt;&lt;span style=&quot;font-size: 10pt&quot;&gt;M&lt;/span&gt;&lt;sub&gt;&lt;font style=&quot;font-size: 10px&quot;&gt;q&lt;/font&gt;&lt;/sub&gt;&lt;span style=&quot;font-size: 10pt&quot;&gt;(&lt;/span&gt;&lt;/span&gt;&lt;span style=&quot;font-size: 10.0pt ; line-height: 107%&quot;&gt;s`|s,a&lt;/span&gt;&lt;span style=&quot;font-size: 10.0pt ; line-height: 107% ; font-family: &amp;#34;symbol&amp;#34;&quot;&gt;)&lt;/span&gt;&lt;/b&gt;&lt;span style=&quot;font-family: &amp;#34;symbol&amp;#34;&quot;&gt;&lt;/span&gt;&lt;/p&gt;" style="rounded=1;whiteSpace=wrap;html=1;fontSize=13;" vertex="1" parent="1">
          <mxGeometry x="570" y="200" width="120" height="60" as="geometry" />
        </mxCell>
        <mxCell id="h6YRAmz9iDq2OZR4_CSM-6" value="Action" style="endArrow=classicThin;endSize=6;endFill=1;html=1;rounded=0;fontSize=10;exitX=0.5;exitY=0;exitDx=0;exitDy=0;entryX=0.5;entryY=1;entryDx=0;entryDy=0;" edge="1" parent="1" source="h6YRAmz9iDq2OZR4_CSM-2" target="h6YRAmz9iDq2OZR4_CSM-1">
          <mxGeometry width="160" relative="1" as="geometry">
            <mxPoint x="340" y="240" as="sourcePoint" />
            <mxPoint x="500" y="240" as="targetPoint" />
          </mxGeometry>
        </mxCell>
        <mxCell id="h6YRAmz9iDq2OZR4_CSM-13" value="&lt;p class=&quot;MsoNormal&quot; style=&quot;font-size: 11px&quot;&gt;&lt;span style=&quot;line-height: 107%&quot;&gt;(s,a,s’,r)&lt;sub&gt;Real&lt;/sub&gt;&lt;/span&gt;&lt;sub&gt;&lt;/sub&gt;&lt;/p&gt;" style="endArrow=classicThin;endFill=1;html=1;rounded=0;fontSize=10;exitX=0.5;exitY=1;exitDx=0;exitDy=0;entryX=0.5;entryY=0;entryDx=0;entryDy=0;" edge="1" parent="1" source="h6YRAmz9iDq2OZR4_CSM-1" target="h6YRAmz9iDq2OZR4_CSM-3">
          <mxGeometry width="160" relative="1" as="geometry">
            <mxPoint x="340" y="240" as="sourcePoint" />
            <mxPoint x="500" y="240" as="targetPoint" />
            <mxPoint as="offset" />
          </mxGeometry>
        </mxCell>
        <mxCell id="h6YRAmz9iDq2OZR4_CSM-19" value="Train" style="endArrow=open;html=1;endSize=12;startArrow=openThin;startSize=14;startFill=0;rounded=0;fontSize=11;exitX=1;exitY=0.5;exitDx=0;exitDy=0;entryX=0;entryY=0.5;entryDx=0;entryDy=0;" edge="1" parent="1" source="h6YRAmz9iDq2OZR4_CSM-3" target="h6YRAmz9iDq2OZR4_CSM-4">
          <mxGeometry relative="1" as="geometry">
            <mxPoint x="450" y="360" as="sourcePoint" />
            <mxPoint x="610" y="360" as="targetPoint" />
            <Array as="points" />
            <mxPoint as="offset" />
          </mxGeometry>
        </mxCell>
        <mxCell id="h6YRAmz9iDq2OZR4_CSM-22" value="Train" style="endArrow=openThin;html=1;endSize=12;startArrow=openThin;startSize=14;startFill=0;rounded=0;fontSize=11;exitX=1;exitY=0.5;exitDx=0;exitDy=0;entryX=0;entryY=0.5;entryDx=0;entryDy=0;endFill=0;" edge="1" parent="1" source="h6YRAmz9iDq2OZR4_CSM-2" target="h6YRAmz9iDq2OZR4_CSM-3">
          <mxGeometry relative="1" as="geometry">
            <mxPoint x="490" y="240" as="sourcePoint" />
            <mxPoint x="580" y="240" as="targetPoint" />
            <Array as="points" />
            <mxPoint as="offset" />
          </mxGeometry>
        </mxCell>
        <mxCell id="h6YRAmz9iDq2OZR4_CSM-23" value="&lt;b&gt;Virtual-Exp Buffer&lt;/b&gt;" style="rounded=1;whiteSpace=wrap;html=1;fontSize=13;" vertex="1" parent="1">
          <mxGeometry x="300" y="350" width="180" height="60" as="geometry" />
        </mxCell>
        <mxCell id="h6YRAmz9iDq2OZR4_CSM-29" value="" style="whiteSpace=wrap;html=1;aspect=fixed;fontSize=11;dashed=1;" vertex="1" parent="1">
          <mxGeometry x="57.5" y="380" width="205" height="205" as="geometry" />
        </mxCell>
        <mxCell id="h6YRAmz9iDq2OZR4_CSM-24" value="&lt;p class=&quot;MsoNormal&quot; style=&quot;font-size: 11px&quot;&gt;&lt;span style=&quot;line-height: 107%&quot;&gt;(s,a,s’,r)&lt;sub&gt;Virtual&lt;/sub&gt;&lt;/span&gt;&lt;sub&gt;&lt;/sub&gt;&lt;/p&gt;" style="endArrow=classicThin;endFill=1;html=1;rounded=0;fontSize=10;exitX=0.5;exitY=1;exitDx=0;exitDy=0;entryX=1;entryY=0.5;entryDx=0;entryDy=0;" edge="1" parent="1" source="h6YRAmz9iDq2OZR4_CSM-4" target="h6YRAmz9iDq2OZR4_CSM-23">
          <mxGeometry width="160" relative="1" as="geometry">
            <mxPoint x="400" y="80" as="sourcePoint" />
            <mxPoint x="400" y="210" as="targetPoint" />
            <mxPoint as="offset" />
          </mxGeometry>
        </mxCell>
        <mxCell id="h6YRAmz9iDq2OZR4_CSM-25" value="&lt;b&gt;Decoder&lt;/b&gt;" style="shape=trapezoid;perimeter=trapezoidPerimeter;whiteSpace=wrap;html=1;fixedSize=1;fontSize=11;" vertex="1" parent="1">
          <mxGeometry x="100" y="510" width="120" height="60" as="geometry" />
        </mxCell>
        <mxCell id="h6YRAmz9iDq2OZR4_CSM-26" value="&lt;b&gt;Encoder&lt;/b&gt;" style="shape=trapezoid;perimeter=trapezoidPerimeter;whiteSpace=wrap;html=1;fixedSize=1;fontSize=11;direction=west;" vertex="1" parent="1">
          <mxGeometry x="100" y="390" width="120" height="60" as="geometry" />
        </mxCell>
        <mxCell id="h6YRAmz9iDq2OZR4_CSM-32" value="&lt;p class=&quot;MsoNormal&quot; style=&quot;font-size: 11px&quot;&gt;&lt;span style=&quot;line-height: 107%&quot;&gt;Batch (if high-dim)&lt;/span&gt;&lt;sub&gt;&lt;/sub&gt;&lt;/p&gt;" style="endArrow=classicThin;endFill=1;html=1;rounded=0;fontSize=10;exitX=0.5;exitY=1;exitDx=0;exitDy=0;entryX=0.5;entryY=0;entryDx=0;entryDy=0;" edge="1" parent="1" source="h6YRAmz9iDq2OZR4_CSM-3" target="h6YRAmz9iDq2OZR4_CSM-29">
          <mxGeometry width="160" relative="1" as="geometry">
            <mxPoint x="410" y="520" as="sourcePoint" />
            <mxPoint x="410" y="650" as="targetPoint" />
            <mxPoint as="offset" />
          </mxGeometry>
        </mxCell>
        <mxCell id="h6YRAmz9iDq2OZR4_CSM-34" value="&lt;b&gt;Z-vector&lt;/b&gt;" style="rounded=1;whiteSpace=wrap;html=1;fontSize=11;" vertex="1" parent="1">
          <mxGeometry x="115" y="470" width="90" height="20" as="geometry" />
        </mxCell>
        <mxCell id="h6YRAmz9iDq2OZR4_CSM-36" value="" style="endArrow=classic;html=1;rounded=0;fontSize=11;exitX=0.5;exitY=0;exitDx=0;exitDy=0;entryX=0.5;entryY=0;entryDx=0;entryDy=0;" edge="1" parent="1" source="h6YRAmz9iDq2OZR4_CSM-26" target="h6YRAmz9iDq2OZR4_CSM-34">
          <mxGeometry width="50" height="50" relative="1" as="geometry">
            <mxPoint x="180" y="390" as="sourcePoint" />
            <mxPoint x="230" y="340" as="targetPoint" />
          </mxGeometry>
        </mxCell>
        <mxCell id="h6YRAmz9iDq2OZR4_CSM-40" value="" style="whiteSpace=wrap;html=1;aspect=fixed;fontSize=11;dashed=1;dashPattern=1 1;" vertex="1" parent="1">
          <mxGeometry x="420" y="470" width="350" height="350" as="geometry" />
        </mxCell>
        <mxCell id="h6YRAmz9iDq2OZR4_CSM-37" value="" style="endArrow=classic;html=1;rounded=0;fontSize=11;entryX=0.5;entryY=0;entryDx=0;entryDy=0;" edge="1" parent="1" target="h6YRAmz9iDq2OZR4_CSM-25">
          <mxGeometry width="50" height="50" relative="1" as="geometry">
            <mxPoint x="160" y="490" as="sourcePoint" />
            <mxPoint x="170" y="480" as="targetPoint" />
          </mxGeometry>
        </mxCell>
        <mxCell id="h6YRAmz9iDq2OZR4_CSM-38" value="" style="endArrow=classic;html=1;rounded=0;fontSize=11;exitX=1;exitY=0.5;exitDx=0;exitDy=0;dashed=1;dashPattern=1 1;entryX=0;entryY=0.5;entryDx=0;entryDy=0;" edge="1" parent="1" source="h6YRAmz9iDq2OZR4_CSM-34" target="h6YRAmz9iDq2OZR4_CSM-40">
          <mxGeometry width="50" height="50" relative="1" as="geometry">
            <mxPoint x="180" y="490" as="sourcePoint" />
            <mxPoint x="400" y="640" as="targetPoint" />
          </mxGeometry>
        </mxCell>
        <mxCell id="h6YRAmz9iDq2OZR4_CSM-45" value="" style="shape=partialRectangle;whiteSpace=wrap;html=1;top=0;left=0;fillColor=none;dashed=1;fontSize=11;dashPattern=1 4;" vertex="1" parent="1">
          <mxGeometry x="490" y="560" width="190" height="200" as="geometry" />
        </mxCell>
        <mxCell id="h6YRAmz9iDq2OZR4_CSM-46" value="" style="endArrow=none;html=1;rounded=0;dashed=1;dashPattern=1 1;fontSize=11;exitX=1;exitY=1;exitDx=0;exitDy=0;" edge="1" parent="1" source="h6YRAmz9iDq2OZR4_CSM-45">
          <mxGeometry width="50" height="50" relative="1" as="geometry">
            <mxPoint x="310" y="810" as="sourcePoint" />
            <mxPoint x="500" y="650" as="targetPoint" />
          </mxGeometry>
        </mxCell>
        <mxCell id="h6YRAmz9iDq2OZR4_CSM-47" value="&lt;b&gt;state&lt;/b&gt;" style="text;html=1;strokeColor=none;fillColor=none;align=center;verticalAlign=middle;whiteSpace=wrap;rounded=0;dashed=1;dashPattern=1 4;fontSize=11;" vertex="1" parent="1">
          <mxGeometry x="555" y="760" width="60" height="30" as="geometry" />
        </mxCell>
        <mxCell id="h6YRAmz9iDq2OZR4_CSM-48" value="&lt;b&gt;action&lt;/b&gt;" style="text;html=1;strokeColor=none;fillColor=none;align=center;verticalAlign=middle;whiteSpace=wrap;rounded=0;dashed=1;dashPattern=1 4;fontSize=11;rotation=30;" vertex="1" parent="1">
          <mxGeometry x="555" y="680" width="60" height="20" as="geometry" />
        </mxCell>
        <mxCell id="h6YRAmz9iDq2OZR4_CSM-49" value="&lt;b&gt;next state&lt;/b&gt;" style="text;html=1;strokeColor=none;fillColor=none;align=center;verticalAlign=middle;whiteSpace=wrap;rounded=0;dashed=1;dashPattern=1 4;fontSize=11;" vertex="1" parent="1">
          <mxGeometry x="690" y="640" width="60" height="30" as="geometry" />
        </mxCell>
        <mxCell id="h6YRAmz9iDq2OZR4_CSM-50" value="&lt;p class=&quot;MsoNormal&quot; style=&quot;font-size: 11px&quot;&gt;&lt;span style=&quot;line-height: 107%&quot;&gt;Batch (if high-dim)&lt;/span&gt;&lt;sub&gt;&lt;/sub&gt;&lt;/p&gt;" style="endArrow=classicThin;endFill=1;html=1;rounded=0;fontSize=10;exitX=0.5;exitY=1;exitDx=0;exitDy=0;entryX=0;entryY=0;entryDx=0;entryDy=0;" edge="1" parent="1" source="h6YRAmz9iDq2OZR4_CSM-23" target="h6YRAmz9iDq2OZR4_CSM-40">
          <mxGeometry width="160" relative="1" as="geometry">
            <mxPoint x="400" y="270" as="sourcePoint" />
            <mxPoint x="170" y="390" as="targetPoint" />
            <mxPoint as="offset" />
          </mxGeometry>
        </mxCell>
        <mxCell id="h6YRAmz9iDq2OZR4_CSM-51" value="&lt;b&gt;Apply Topological Data Analysis&amp;nbsp;&lt;/b&gt;" style="text;html=1;strokeColor=none;fillColor=none;align=center;verticalAlign=middle;whiteSpace=wrap;rounded=0;dashed=1;dashPattern=1 4;fontSize=11;" vertex="1" parent="1">
          <mxGeometry x="510" y="480" width="195" height="30" as="geometry" />
        </mxCell>
        <mxCell id="h6YRAmz9iDq2OZR4_CSM-52" value="&lt;b&gt;Exploration Strategy:&lt;br&gt;&lt;/b&gt;&lt;br&gt;To get a good (local) shape of data &lt;br&gt;(i.e., to be helpful for TDA)" style="text;html=1;strokeColor=none;fillColor=none;align=center;verticalAlign=middle;whiteSpace=wrap;rounded=0;dashed=1;dashPattern=1 4;fontSize=11;" vertex="1" parent="1">
          <mxGeometry x="130" y="640" width="210" height="120" as="geometry" />
        </mxCell>
      </root>
    </mxGraphModel>
  </diagram>
  <diagram id="XavQkkNoQxD6gVA44_od" name="Page-2">
    <mxGraphModel dx="1038" dy="2778" grid="1" gridSize="10" guides="1" tooltips="1" connect="1" arrows="1" fold="1" page="1" pageScale="1" pageWidth="850" pageHeight="1100" math="0" shadow="0">
      <root>
        <mxCell id="0" />
        <mxCell id="1" parent="0" />
        <mxCell id="0_VTEYYeFwFytl5VE70v-1" value="" style="rounded=1;whiteSpace=wrap;html=1;" parent="1" vertex="1">
          <mxGeometry x="430" y="-870" width="270" height="160" as="geometry" />
        </mxCell>
        <mxCell id="0_VTEYYeFwFytl5VE70v-2" value="&lt;b&gt;MB Actor&lt;/b&gt;&lt;b&gt;&lt;br&gt;&lt;/b&gt;" style="rounded=0;whiteSpace=wrap;html=1;fillColor=#fff2cc;strokeColor=#d6b656;" parent="1" vertex="1">
          <mxGeometry x="440" y="-853" width="120" height="57" as="geometry" />
        </mxCell>
        <mxCell id="0_VTEYYeFwFytl5VE70v-3" value="&lt;b&gt;MB Critic&lt;/b&gt;&lt;b&gt;&lt;br&gt;&lt;/b&gt;" style="rounded=0;whiteSpace=wrap;html=1;fillColor=#fff2cc;strokeColor=#d6b656;" parent="1" vertex="1">
          <mxGeometry x="570" y="-853" width="120" height="57" as="geometry" />
        </mxCell>
        <mxCell id="0_VTEYYeFwFytl5VE70v-4" value="&lt;b&gt;MB Buffer (Real + Virtual)&lt;/b&gt;" style="rounded=0;whiteSpace=wrap;html=1;fillColor=#fff2cc;strokeColor=#d6b656;" parent="1" vertex="1">
          <mxGeometry x="482" y="-780.5" width="177.75" height="60" as="geometry" />
        </mxCell>
        <mxCell id="0_VTEYYeFwFytl5VE70v-5" value="" style="rounded=1;whiteSpace=wrap;html=1;" parent="1" vertex="1">
          <mxGeometry x="110" y="-870" width="270" height="160" as="geometry" />
        </mxCell>
        <mxCell id="0_VTEYYeFwFytl5VE70v-6" value="&lt;b&gt;MF Actor&lt;/b&gt;&lt;b&gt;&lt;br&gt;&lt;/b&gt;" style="rounded=0;whiteSpace=wrap;html=1;fillColor=#d5e8d4;strokeColor=#82b366;" parent="1" vertex="1">
          <mxGeometry x="120" y="-853" width="120" height="57" as="geometry" />
        </mxCell>
        <mxCell id="0_VTEYYeFwFytl5VE70v-7" value="&lt;b&gt;MF Critic&lt;/b&gt;&lt;b&gt;&lt;br&gt;&lt;/b&gt;" style="rounded=0;whiteSpace=wrap;html=1;fillColor=#d5e8d4;strokeColor=#82b366;" parent="1" vertex="1">
          <mxGeometry x="250" y="-853" width="120" height="57" as="geometry" />
        </mxCell>
        <mxCell id="0_VTEYYeFwFytl5VE70v-8" value="&lt;b&gt;MF Buffer (Real)&lt;/b&gt;" style="rounded=0;whiteSpace=wrap;html=1;fillColor=#d5e8d4;strokeColor=#82b366;" parent="1" vertex="1">
          <mxGeometry x="162" y="-780.5" width="177.75" height="60" as="geometry" />
        </mxCell>
        <mxCell id="B8kUq8qT2A8WMCk4wdnd-1" value="&lt;b&gt;MDP#1&lt;/b&gt;" style="rounded=1;whiteSpace=wrap;html=1;" parent="1" vertex="1">
          <mxGeometry x="309.5" y="-1110" width="220" height="130" as="geometry" />
        </mxCell>
        <mxCell id="LOCp_cTGaWS-Us8qrZke-1" value="&lt;b&gt;&lt;font style=&quot;font-size: 16px&quot;&gt;Virtual-Data Buffer&lt;/font&gt;&lt;/b&gt;" style="text;html=1;strokeColor=#666666;fillColor=#f5f5f5;align=center;verticalAlign=middle;whiteSpace=wrap;rounded=0;fontColor=#333333;" parent="1" vertex="1">
          <mxGeometry x="445.5" y="-620" width="239" height="85" as="geometry" />
        </mxCell>
        <mxCell id="sW4iYyQWtvC-jd7XGxIC-1" value="&lt;b&gt;&lt;font&gt;&lt;font style=&quot;font-size: 21px&quot;&gt;Model&lt;/font&gt;&lt;br&gt;&lt;/font&gt;&lt;/b&gt;&lt;p class=&quot;MsoNormal&quot; style=&quot;font-size: 13px&quot;&gt;&lt;b&gt;P&lt;sub&gt;&lt;span style=&quot;font-family: &amp;#34;symbol&amp;#34; ; font-size: 13px&quot;&gt;q&lt;/span&gt;&lt;/sub&gt;(s`,r | s, a)&lt;/b&gt;&lt;/p&gt;" style="shape=trapezoid;perimeter=trapezoidPerimeter;whiteSpace=wrap;html=1;fixedSize=1;fillColor=#ffe6cc;strokeColor=#d79b00;" parent="1" vertex="1">
          <mxGeometry x="289.5" y="-450" width="240" height="140" as="geometry" />
        </mxCell>
        <mxCell id="sW4iYyQWtvC-jd7XGxIC-2" value="" style="edgeStyle=elbowEdgeStyle;elbow=vertical;endArrow=classic;html=1;rounded=0;entryX=0.5;entryY=1;entryDx=0;entryDy=0;" parent="1" source="sW4iYyQWtvC-jd7XGxIC-1" target="LOCp_cTGaWS-Us8qrZke-1" edge="1">
          <mxGeometry width="50" height="50" relative="1" as="geometry">
            <mxPoint x="400" y="-580" as="sourcePoint" />
            <mxPoint x="570" y="-570" as="targetPoint" />
          </mxGeometry>
        </mxCell>
        <mxCell id="sW4iYyQWtvC-jd7XGxIC-4" value="" style="endArrow=classic;startArrow=classic;html=1;rounded=0;exitX=0.5;exitY=0;exitDx=0;exitDy=0;entryX=0.5;entryY=1;entryDx=0;entryDy=0;" parent="1" source="0_VTEYYeFwFytl5VE70v-5" target="B8kUq8qT2A8WMCk4wdnd-1" edge="1">
          <mxGeometry width="50" height="50" relative="1" as="geometry">
            <mxPoint x="400" y="-880" as="sourcePoint" />
            <mxPoint x="450" y="-930" as="targetPoint" />
          </mxGeometry>
        </mxCell>
        <mxCell id="sW4iYyQWtvC-jd7XGxIC-6" value="&lt;font color=&quot;#cc0000&quot;&gt;&lt;b&gt;Collect Real-Data&lt;/b&gt;&lt;/font&gt;" style="text;html=1;align=center;verticalAlign=middle;whiteSpace=wrap;rounded=0;fillColor=#bac8d3;strokeColor=#23445d;" parent="1" vertex="1">
          <mxGeometry x="270" y="-950" width="130" height="30" as="geometry" />
        </mxCell>
        <mxCell id="sW4iYyQWtvC-jd7XGxIC-8" value="" style="shape=singleArrow;direction=north;whiteSpace=wrap;html=1;fontColor=#CC0000;" parent="1" vertex="1">
          <mxGeometry x="529.5" y="-720" width="60" height="110" as="geometry" />
        </mxCell>
        <mxCell id="sW4iYyQWtvC-jd7XGxIC-9" value="" style="edgeStyle=elbowEdgeStyle;elbow=vertical;endArrow=classic;html=1;rounded=0;fontColor=#CC0000;exitX=1;exitY=0.5;exitDx=0;exitDy=0;" parent="1" source="0_VTEYYeFwFytl5VE70v-7" edge="1">
          <mxGeometry width="50" height="50" relative="1" as="geometry">
            <mxPoint x="400" y="-690" as="sourcePoint" />
            <mxPoint x="560" y="-650" as="targetPoint" />
            <Array as="points">
              <mxPoint x="430" y="-650" />
              <mxPoint x="530" y="-610" />
            </Array>
          </mxGeometry>
        </mxCell>
        <mxCell id="sW4iYyQWtvC-jd7XGxIC-10" value="&lt;font color=&quot;#cc0000&quot;&gt;&lt;b&gt;Accept / Reject / Adjust&lt;/b&gt;&lt;/font&gt;" style="text;html=1;align=center;verticalAlign=middle;whiteSpace=wrap;rounded=0;fillColor=#bac8d3;strokeColor=#23445d;" parent="1" vertex="1">
          <mxGeometry x="500" y="-670" width="140" height="30" as="geometry" />
        </mxCell>
      </root>
    </mxGraphModel>
  </diagram>
  <diagram id="C5RBs43oDa-KdzZeNtuy" name="Page-3">
    <mxGraphModel dx="1865" dy="1747" grid="1" gridSize="10" guides="1" tooltips="1" connect="1" arrows="1" fold="1" page="1" pageScale="1" pageWidth="827" pageHeight="1169" math="0" shadow="0">
      <root>
        <mxCell id="WIyWlLk6GJQsqaUBKTNV-0" />
        <mxCell id="WIyWlLk6GJQsqaUBKTNV-1" parent="WIyWlLk6GJQsqaUBKTNV-0" />
        <mxCell id="-ukS8XNGeBA5nCXOuDTJ-0" value="" style="rounded=1;whiteSpace=wrap;html=1;fillColor=#f5f5f5;strokeColor=#666666;fontColor=#333333;" parent="WIyWlLk6GJQsqaUBKTNV-1" vertex="1">
          <mxGeometry x="-190" y="460" width="200" height="120" as="geometry" />
        </mxCell>
        <mxCell id="4IBHdZZMK2GOweMAHHJc-2" value="" style="endArrow=classic;html=1;rounded=0;exitX=0.5;exitY=0;exitDx=0;exitDy=0;entryX=0.5;entryY=1;entryDx=0;entryDy=0;" parent="WIyWlLk6GJQsqaUBKTNV-1" source="4IBHdZZMK2GOweMAHHJc-4" target="dkbkecR2asOSD1VpJGK2-13" edge="1">
          <mxGeometry width="50" height="50" relative="1" as="geometry">
            <mxPoint x="274.5" y="650" as="sourcePoint" />
            <mxPoint x="380" y="670" as="targetPoint" />
          </mxGeometry>
        </mxCell>
        <mxCell id="3kmWi4E-Ou6UmcbgvCwx-0" value="&lt;b&gt;MDP#1&lt;/b&gt;" style="rounded=1;whiteSpace=wrap;html=1;" parent="WIyWlLk6GJQsqaUBKTNV-1" vertex="1">
          <mxGeometry x="86.75" y="102" width="120" height="60" as="geometry" />
        </mxCell>
        <mxCell id="3kmWi4E-Ou6UmcbgvCwx-2" value="&lt;b&gt;MDP #2&lt;/b&gt;" style="rounded=1;whiteSpace=wrap;html=1;" parent="WIyWlLk6GJQsqaUBKTNV-1" vertex="1">
          <mxGeometry x="470" y="102" width="120" height="60" as="geometry" />
        </mxCell>
        <mxCell id="3kmWi4E-Ou6UmcbgvCwx-3" value="&lt;b&gt;MDP #3&lt;/b&gt;" style="rounded=1;whiteSpace=wrap;html=1;" parent="WIyWlLk6GJQsqaUBKTNV-1" vertex="1">
          <mxGeometry x="650" y="102" width="120" height="60" as="geometry" />
        </mxCell>
        <mxCell id="3kmWi4E-Ou6UmcbgvCwx-4" value="&lt;b&gt;MDP #N&lt;/b&gt;" style="rounded=1;whiteSpace=wrap;html=1;" parent="WIyWlLk6GJQsqaUBKTNV-1" vertex="1">
          <mxGeometry x="899" y="102" width="120" height="60" as="geometry" />
        </mxCell>
        <mxCell id="3kmWi4E-Ou6UmcbgvCwx-7" value="&lt;b&gt;MF Actor&lt;/b&gt;&lt;b&gt;&lt;br&gt;&lt;/b&gt;" style="rounded=0;whiteSpace=wrap;html=1;fillColor=#d5e8d4;strokeColor=#82b366;" parent="WIyWlLk6GJQsqaUBKTNV-1" vertex="1">
          <mxGeometry x="-170" y="467" width="70" height="43" as="geometry" />
        </mxCell>
        <mxCell id="3kmWi4E-Ou6UmcbgvCwx-8" value="&lt;b&gt;Model-Based Actor&lt;br&gt;&lt;/b&gt;" style="rounded=0;whiteSpace=wrap;html=1;fillColor=#fff2cc;strokeColor=#d6b656;" parent="WIyWlLk6GJQsqaUBKTNV-1" vertex="1">
          <mxGeometry x="235" y="391" width="120" height="60" as="geometry" />
        </mxCell>
        <mxCell id="3kmWi4E-Ou6UmcbgvCwx-10" value="&lt;b&gt;&lt;font&gt;&lt;font style=&quot;font-size: 21px&quot;&gt;Model&lt;/font&gt;&lt;br&gt;&lt;/font&gt;&lt;/b&gt;&lt;p class=&quot;MsoNormal&quot; style=&quot;font-size: 13px&quot;&gt;&lt;b&gt;P&lt;sub&gt;&lt;span style=&quot;font-family: &amp;#34;symbol&amp;#34; ; font-size: 13px&quot;&gt;q&lt;/span&gt;&lt;/sub&gt;(s`,r | s, a)&lt;/b&gt;&lt;/p&gt;" style="shape=trapezoid;perimeter=trapezoidPerimeter;whiteSpace=wrap;html=1;fixedSize=1;fillColor=#ffe6cc;strokeColor=#d79b00;" parent="WIyWlLk6GJQsqaUBKTNV-1" vertex="1">
          <mxGeometry x="20" y="923" width="200" height="78" as="geometry" />
        </mxCell>
        <mxCell id="3kmWi4E-Ou6UmcbgvCwx-12" value="&lt;b&gt;&lt;strike&gt;Action Selector&lt;/strike&gt;&lt;font face=&quot;Symbol&quot;&gt;&lt;strike&gt;&amp;nbsp;(a)&lt;br&gt;&lt;/strike&gt;[&lt;/font&gt;For Later]&lt;br&gt;&lt;/b&gt;" style="ellipse;whiteSpace=wrap;html=1;" parent="WIyWlLk6GJQsqaUBKTNV-1" vertex="1">
          <mxGeometry x="70" y="250" width="153.5" height="60" as="geometry" />
        </mxCell>
        <mxCell id="3kmWi4E-Ou6UmcbgvCwx-13" value="" style="endArrow=classic;html=1;rounded=0;entryX=0.5;entryY=1;entryDx=0;entryDy=0;" parent="WIyWlLk6GJQsqaUBKTNV-1" target="3kmWi4E-Ou6UmcbgvCwx-12" edge="1">
          <mxGeometry width="50" height="50" relative="1" as="geometry">
            <mxPoint x="-80" y="360" as="sourcePoint" />
            <mxPoint x="130" y="410" as="targetPoint" />
          </mxGeometry>
        </mxCell>
        <mxCell id="3kmWi4E-Ou6UmcbgvCwx-14" value="" style="endArrow=classic;html=1;rounded=0;exitX=0.25;exitY=0;exitDx=0;exitDy=0;entryX=0.5;entryY=1;entryDx=0;entryDy=0;" parent="WIyWlLk6GJQsqaUBKTNV-1" source="3kmWi4E-Ou6UmcbgvCwx-8" target="3kmWi4E-Ou6UmcbgvCwx-12" edge="1">
          <mxGeometry width="50" height="50" relative="1" as="geometry">
            <mxPoint x="80" y="460" as="sourcePoint" />
            <mxPoint x="130" y="410" as="targetPoint" />
          </mxGeometry>
        </mxCell>
        <mxCell id="3kmWi4E-Ou6UmcbgvCwx-16" value="" style="endArrow=classic;html=1;rounded=0;exitX=0.5;exitY=0;exitDx=0;exitDy=0;entryX=0.5;entryY=1;entryDx=0;entryDy=0;" parent="WIyWlLk6GJQsqaUBKTNV-1" source="3kmWi4E-Ou6UmcbgvCwx-12" target="3kmWi4E-Ou6UmcbgvCwx-0" edge="1">
          <mxGeometry width="50" height="50" relative="1" as="geometry">
            <mxPoint x="80" y="460" as="sourcePoint" />
            <mxPoint x="130" y="410" as="targetPoint" />
          </mxGeometry>
        </mxCell>
        <mxCell id="3kmWi4E-Ou6UmcbgvCwx-19" value="&lt;b&gt;Action - MF&lt;/b&gt;" style="text;html=1;strokeColor=#666666;fillColor=#f5f5f5;align=center;verticalAlign=middle;whiteSpace=wrap;rounded=0;fontColor=#333333;" parent="WIyWlLk6GJQsqaUBKTNV-1" vertex="1">
          <mxGeometry x="39" y="341" width="75" height="30" as="geometry" />
        </mxCell>
        <mxCell id="3kmWi4E-Ou6UmcbgvCwx-23" value="&lt;b&gt;Action - MBMF&lt;/b&gt;" style="text;html=1;strokeColor=#666666;fillColor=#f5f5f5;align=center;verticalAlign=middle;whiteSpace=wrap;rounded=0;fontColor=#333333;" parent="WIyWlLk6GJQsqaUBKTNV-1" vertex="1">
          <mxGeometry x="101.5" y="202" width="100" height="30" as="geometry" />
        </mxCell>
        <mxCell id="3kmWi4E-Ou6UmcbgvCwx-26" value="" style="edgeStyle=elbowEdgeStyle;elbow=horizontal;endArrow=classic;html=1;rounded=0;exitX=1;exitY=0.5;exitDx=0;exitDy=0;entryX=1;entryY=0.5;entryDx=0;entryDy=0;" parent="WIyWlLk6GJQsqaUBKTNV-1" source="3kmWi4E-Ou6UmcbgvCwx-0" target="3kmWi4E-Ou6UmcbgvCwx-10" edge="1">
          <mxGeometry width="50" height="50" relative="1" as="geometry">
            <mxPoint x="213" y="154" as="sourcePoint" />
            <mxPoint x="243" y="563" as="targetPoint" />
            <Array as="points">
              <mxPoint x="420" y="580" />
              <mxPoint x="393" y="344" />
              <mxPoint x="373" y="354" />
              <mxPoint x="373" y="354" />
              <mxPoint x="383" y="264" />
              <mxPoint x="383" y="254" />
            </Array>
          </mxGeometry>
        </mxCell>
        <mxCell id="3kmWi4E-Ou6UmcbgvCwx-27" value="&lt;b&gt;Real-Transition-Data (s,a,s`,r)&lt;/b&gt;" style="text;html=1;strokeColor=#666666;fillColor=#f5f5f5;align=center;verticalAlign=middle;whiteSpace=wrap;rounded=0;fontColor=#333333;" parent="WIyWlLk6GJQsqaUBKTNV-1" vertex="1">
          <mxGeometry x="370" y="322" width="120" height="35" as="geometry" />
        </mxCell>
        <mxCell id="3kmWi4E-Ou6UmcbgvCwx-28" value="&lt;b&gt;Action - MB&lt;/b&gt;" style="text;html=1;strokeColor=#666666;fillColor=#f5f5f5;align=center;verticalAlign=middle;whiteSpace=wrap;rounded=0;fontColor=#333333;" parent="WIyWlLk6GJQsqaUBKTNV-1" vertex="1">
          <mxGeometry x="166" y="341" width="75" height="30" as="geometry" />
        </mxCell>
        <mxCell id="3kmWi4E-Ou6UmcbgvCwx-32" value="&lt;br&gt;&lt;b&gt;&lt;u&gt;&lt;font style=&quot;font-size: 20px&quot;&gt;Meta Model&lt;/font&gt;&lt;/u&gt;&lt;/b&gt;" style="shape=hexagon;perimeter=hexagonPerimeter2;whiteSpace=wrap;html=1;fixedSize=1;" parent="WIyWlLk6GJQsqaUBKTNV-1" vertex="1">
          <mxGeometry x="414" y="1320" width="510" height="86" as="geometry" />
        </mxCell>
        <mxCell id="3kmWi4E-Ou6UmcbgvCwx-35" value="&lt;b&gt;&lt;font style=&quot;font-size: 15px&quot;&gt;Meta Actor&lt;/font&gt;&lt;/b&gt;" style="rounded=0;whiteSpace=wrap;html=1;" parent="WIyWlLk6GJQsqaUBKTNV-1" vertex="1">
          <mxGeometry x="600" y="1110" width="240" height="60" as="geometry" />
        </mxCell>
        <mxCell id="3kmWi4E-Ou6UmcbgvCwx-37" value="" style="edgeStyle=segmentEdgeStyle;endArrow=classic;html=1;rounded=0;exitX=1;exitY=0.5;exitDx=0;exitDy=0;entryX=0.5;entryY=0;entryDx=0;entryDy=0;" parent="WIyWlLk6GJQsqaUBKTNV-1" source="3kmWi4E-Ou6UmcbgvCwx-0" target="3kmWi4E-Ou6UmcbgvCwx-8" edge="1">
          <mxGeometry width="50" height="50" relative="1" as="geometry">
            <mxPoint x="231" y="147" as="sourcePoint" />
            <mxPoint x="292" y="391" as="targetPoint" />
          </mxGeometry>
        </mxCell>
        <mxCell id="3kmWi4E-Ou6UmcbgvCwx-38" value="&lt;b&gt;Real-Transition-Data (s,a,s`,r)&lt;/b&gt;" style="text;html=1;strokeColor=#666666;fillColor=#f5f5f5;align=center;verticalAlign=middle;whiteSpace=wrap;rounded=0;fontColor=#333333;" parent="WIyWlLk6GJQsqaUBKTNV-1" vertex="1">
          <mxGeometry x="240" y="233" width="120" height="35" as="geometry" />
        </mxCell>
        <mxCell id="3kmWi4E-Ou6UmcbgvCwx-39" value="" style="edgeStyle=segmentEdgeStyle;endArrow=classic;html=1;rounded=0;exitX=0;exitY=0.5;exitDx=0;exitDy=0;" parent="WIyWlLk6GJQsqaUBKTNV-1" source="3kmWi4E-Ou6UmcbgvCwx-0" edge="1">
          <mxGeometry width="50" height="50" relative="1" as="geometry">
            <mxPoint x="300" y="340" as="sourcePoint" />
            <mxPoint x="-140" y="370" as="targetPoint" />
          </mxGeometry>
        </mxCell>
        <mxCell id="3kmWi4E-Ou6UmcbgvCwx-40" value="&lt;b&gt;Real-Transition-Data (s,a,s`,r)&lt;/b&gt;" style="text;html=1;strokeColor=#666666;fillColor=#f5f5f5;align=center;verticalAlign=middle;whiteSpace=wrap;rounded=0;fontColor=#333333;" parent="WIyWlLk6GJQsqaUBKTNV-1" vertex="1">
          <mxGeometry x="-90" y="233" width="120" height="35" as="geometry" />
        </mxCell>
        <mxCell id="3kmWi4E-Ou6UmcbgvCwx-41" value="&lt;b&gt;Test MDP&lt;/b&gt;" style="shape=ext;double=1;rounded=0;whiteSpace=wrap;html=1;" parent="WIyWlLk6GJQsqaUBKTNV-1" vertex="1">
          <mxGeometry x="1270" y="97" width="150" height="70" as="geometry" />
        </mxCell>
        <mxCell id="3kmWi4E-Ou6UmcbgvCwx-42" value="" style="endArrow=none;dashed=1;html=1;dashPattern=1 3;strokeWidth=2;rounded=0;" parent="WIyWlLk6GJQsqaUBKTNV-1" edge="1">
          <mxGeometry width="50" height="50" relative="1" as="geometry">
            <mxPoint x="1080" y="1340" as="sourcePoint" />
            <mxPoint x="1070" as="targetPoint" />
          </mxGeometry>
        </mxCell>
        <mxCell id="XSOrIPqksuprJFilapF8-9" value="" style="endArrow=none;dashed=1;html=1;dashPattern=1 3;strokeWidth=7;rounded=0;fontFamily=Helvetica;" parent="WIyWlLk6GJQsqaUBKTNV-1" edge="1">
          <mxGeometry width="50" height="50" relative="1" as="geometry">
            <mxPoint x="794" y="129" as="sourcePoint" />
            <mxPoint x="874" y="129" as="targetPoint" />
          </mxGeometry>
        </mxCell>
        <mxCell id="H2Ly57MOsByv2HvjXkmj-0" value="&lt;b&gt;Test MDP-2&lt;/b&gt;" style="shape=ext;double=1;rounded=0;whiteSpace=wrap;html=1;" parent="WIyWlLk6GJQsqaUBKTNV-1" vertex="1">
          <mxGeometry x="1860" y="102" width="150" height="70" as="geometry" />
        </mxCell>
        <mxCell id="H2Ly57MOsByv2HvjXkmj-1" value="&lt;br&gt;&lt;b&gt;Meta Model (copy to adapt to test MDP)&lt;/b&gt;" style="shape=hexagon;perimeter=hexagonPerimeter2;whiteSpace=wrap;html=1;fixedSize=1;" parent="WIyWlLk6GJQsqaUBKTNV-1" vertex="1">
          <mxGeometry x="1130" y="1320" width="480" height="86" as="geometry" />
        </mxCell>
        <mxCell id="B7kR-u9wCm3kEAXt-Wm9-17" value="" style="endArrow=none;html=1;rounded=0;fontSize=12;fontColor=#000000;entryX=0;entryY=0;entryDx=0;entryDy=0;" parent="WIyWlLk6GJQsqaUBKTNV-1" target="B7kR-u9wCm3kEAXt-Wm9-16" edge="1">
          <mxGeometry width="50" height="50" relative="1" as="geometry">
            <mxPoint x="130" y="480" as="sourcePoint" />
            <mxPoint x="169.5" y="490" as="targetPoint" />
          </mxGeometry>
        </mxCell>
        <mxCell id="B7kR-u9wCm3kEAXt-Wm9-16" value="&lt;b&gt;Supervise (Accept or Reject)&lt;/b&gt;" style="text;html=1;strokeColor=#666666;fillColor=#f5f5f5;align=center;verticalAlign=middle;whiteSpace=wrap;rounded=0;fontColor=#333333;" parent="WIyWlLk6GJQsqaUBKTNV-1" vertex="1">
          <mxGeometry x="230" y="569.5" width="112" height="30" as="geometry" />
        </mxCell>
        <mxCell id="dkbkecR2asOSD1VpJGK2-3" value="" style="endArrow=classic;html=1;rounded=0;exitX=0.5;exitY=0;exitDx=0;exitDy=0;startArrow=none;entryX=0.5;entryY=1;entryDx=0;entryDy=0;" parent="WIyWlLk6GJQsqaUBKTNV-1" source="3kmWi4E-Ou6UmcbgvCwx-10" target="4IBHdZZMK2GOweMAHHJc-4" edge="1">
          <mxGeometry width="50" height="50" relative="1" as="geometry">
            <mxPoint x="31.5" y="830" as="sourcePoint" />
            <mxPoint x="270" y="740" as="targetPoint" />
          </mxGeometry>
        </mxCell>
        <mxCell id="dkbkecR2asOSD1VpJGK2-4" value="&lt;b&gt;&lt;font style=&quot;font-size: 16px&quot;&gt;Real-Data Buffer&lt;/font&gt;&lt;/b&gt;" style="text;html=1;strokeColor=#666666;fillColor=#f5f5f5;align=center;verticalAlign=middle;whiteSpace=wrap;rounded=0;fontColor=#333333;" parent="WIyWlLk6GJQsqaUBKTNV-1" vertex="1">
          <mxGeometry x="-135.75" y="652.5" width="222.5" height="85" as="geometry" />
        </mxCell>
        <mxCell id="dkbkecR2asOSD1VpJGK2-13" value="&lt;b&gt;Model-Based Critic&lt;br&gt;&lt;/b&gt;" style="rounded=0;whiteSpace=wrap;html=1;fillColor=#fff2cc;strokeColor=#d6b656;" parent="WIyWlLk6GJQsqaUBKTNV-1" vertex="1">
          <mxGeometry x="235" y="450" width="120" height="60" as="geometry" />
        </mxCell>
        <mxCell id="dkbkecR2asOSD1VpJGK2-14" value="&lt;b&gt;MF Critic&lt;/b&gt;&lt;b&gt;&lt;br&gt;&lt;/b&gt;" style="rounded=0;whiteSpace=wrap;html=1;fillColor=#d5e8d4;strokeColor=#82b366;" parent="WIyWlLk6GJQsqaUBKTNV-1" vertex="1">
          <mxGeometry x="-90" y="467" width="70" height="43" as="geometry" />
        </mxCell>
        <mxCell id="dkbkecR2asOSD1VpJGK2-15" value="" style="endArrow=classic;html=1;rounded=0;exitX=1;exitY=0.5;exitDx=0;exitDy=0;entryX=0;entryY=0.5;entryDx=0;entryDy=0;" parent="WIyWlLk6GJQsqaUBKTNV-1" source="3kmWi4E-Ou6UmcbgvCwx-32" target="H2Ly57MOsByv2HvjXkmj-1" edge="1">
          <mxGeometry width="50" height="50" relative="1" as="geometry">
            <mxPoint x="890" y="1120" as="sourcePoint" />
            <mxPoint x="940" y="1070" as="targetPoint" />
          </mxGeometry>
        </mxCell>
        <mxCell id="dkbkecR2asOSD1VpJGK2-16" value="" style="endArrow=none;dashed=1;html=1;dashPattern=1 3;strokeWidth=2;rounded=0;" parent="WIyWlLk6GJQsqaUBKTNV-1" edge="1">
          <mxGeometry width="50" height="50" relative="1" as="geometry">
            <mxPoint x="1640" y="1320" as="sourcePoint" />
            <mxPoint x="1640" as="targetPoint" />
          </mxGeometry>
        </mxCell>
        <mxCell id="dkbkecR2asOSD1VpJGK2-17" value="&lt;b&gt;Meta Actor (copy to adapt to test-MDP)&lt;/b&gt;" style="rounded=0;whiteSpace=wrap;html=1;" parent="WIyWlLk6GJQsqaUBKTNV-1" vertex="1">
          <mxGeometry x="1200" y="1110" width="240" height="60" as="geometry" />
        </mxCell>
        <mxCell id="dkbkecR2asOSD1VpJGK2-18" value="" style="endArrow=classic;html=1;rounded=0;exitX=1;exitY=0.5;exitDx=0;exitDy=0;entryX=0;entryY=0.5;entryDx=0;entryDy=0;" parent="WIyWlLk6GJQsqaUBKTNV-1" source="3kmWi4E-Ou6UmcbgvCwx-35" target="dkbkecR2asOSD1VpJGK2-17" edge="1">
          <mxGeometry width="50" height="50" relative="1" as="geometry">
            <mxPoint x="830" y="920" as="sourcePoint" />
            <mxPoint x="880" y="870" as="targetPoint" />
          </mxGeometry>
        </mxCell>
        <mxCell id="4IBHdZZMK2GOweMAHHJc-4" value="&lt;b&gt;&lt;font style=&quot;font-size: 16px&quot;&gt;Virtual-Data Buffer&lt;/font&gt;&lt;/b&gt;" style="text;html=1;strokeColor=#666666;fillColor=#f5f5f5;align=center;verticalAlign=middle;whiteSpace=wrap;rounded=0;fontColor=#333333;" parent="WIyWlLk6GJQsqaUBKTNV-1" vertex="1">
          <mxGeometry x="166" y="652.5" width="229" height="85" as="geometry" />
        </mxCell>
        <mxCell id="j5ArWIg61QaZ4OH7O-Nc-0" value="&lt;b&gt;Virtual-Transition-Data (s,a,s`,r)&lt;/b&gt;" style="text;html=1;strokeColor=#666666;fillColor=#f5f5f5;align=center;verticalAlign=middle;whiteSpace=wrap;rounded=0;fontColor=#333333;" parent="WIyWlLk6GJQsqaUBKTNV-1" vertex="1">
          <mxGeometry x="138" y="810" width="160" height="35" as="geometry" />
        </mxCell>
        <mxCell id="j5ArWIg61QaZ4OH7O-Nc-1" value="&lt;b&gt;&lt;font style=&quot;font-size: 15px&quot;&gt;Meta Critic&lt;/font&gt;&lt;/b&gt;" style="rounded=0;whiteSpace=wrap;html=1;" parent="WIyWlLk6GJQsqaUBKTNV-1" vertex="1">
          <mxGeometry x="600" y="1170" width="240" height="60" as="geometry" />
        </mxCell>
        <mxCell id="j5ArWIg61QaZ4OH7O-Nc-2" value="&lt;b&gt;Meta Critic(copy to adapt to test-MDP)&lt;/b&gt;" style="rounded=0;whiteSpace=wrap;html=1;" parent="WIyWlLk6GJQsqaUBKTNV-1" vertex="1">
          <mxGeometry x="1200" y="1170" width="240" height="60" as="geometry" />
        </mxCell>
        <mxCell id="j5ArWIg61QaZ4OH7O-Nc-3" value="" style="endArrow=classic;html=1;rounded=0;exitX=1;exitY=0.5;exitDx=0;exitDy=0;entryX=0;entryY=0.5;entryDx=0;entryDy=0;" parent="WIyWlLk6GJQsqaUBKTNV-1" source="j5ArWIg61QaZ4OH7O-Nc-1" target="j5ArWIg61QaZ4OH7O-Nc-2" edge="1">
          <mxGeometry width="50" height="50" relative="1" as="geometry">
            <mxPoint x="850" y="1150" as="sourcePoint" />
            <mxPoint x="1210" y="1150" as="targetPoint" />
            <Array as="points" />
          </mxGeometry>
        </mxCell>
        <mxCell id="GBIENdj6zCGluUhPFunL-0" value="perhaps using supervised learning first learn &quot;model&quot; to some extent?" style="text;html=1;align=center;verticalAlign=middle;resizable=0;points=[];autosize=1;strokeColor=none;fillColor=none;fontSize=21;" parent="WIyWlLk6GJQsqaUBKTNV-1" vertex="1">
          <mxGeometry x="-280" y="1037" width="660" height="30" as="geometry" />
        </mxCell>
        <mxCell id="4uGbEssyHlF9sXND5U0s-0" value="&lt;b&gt;&lt;font style=&quot;font-size: 20px&quot;&gt;좀더 수학적으로 접근해야됨&lt;/font&gt;&lt;/b&gt;" style="text;html=1;strokeColor=none;fillColor=none;align=center;verticalAlign=middle;whiteSpace=wrap;rounded=0;" parent="WIyWlLk6GJQsqaUBKTNV-1" vertex="1">
          <mxGeometry x="620" y="610" width="100" height="230" as="geometry" />
        </mxCell>
        <mxCell id="eHeV3anUW0u52GEbOX2K-1" value="" style="endArrow=none;html=1;rounded=0;fontFamily=Helvetica;" parent="WIyWlLk6GJQsqaUBKTNV-1" edge="1">
          <mxGeometry width="50" height="50" relative="1" as="geometry">
            <mxPoint x="70" y="240" as="sourcePoint" />
            <mxPoint x="230" y="310" as="targetPoint" />
          </mxGeometry>
        </mxCell>
        <mxCell id="eHeV3anUW0u52GEbOX2K-2" value="" style="endArrow=none;html=1;rounded=0;fontFamily=Helvetica;" parent="WIyWlLk6GJQsqaUBKTNV-1" edge="1">
          <mxGeometry width="50" height="50" relative="1" as="geometry">
            <mxPoint x="90" y="320" as="sourcePoint" />
            <mxPoint x="220" y="240" as="targetPoint" />
          </mxGeometry>
        </mxCell>
        <mxCell id="-ukS8XNGeBA5nCXOuDTJ-2" value="&lt;b&gt;MF Buffer (Real Data)&lt;/b&gt;" style="rounded=0;whiteSpace=wrap;html=1;fillColor=#d5e8d4;strokeColor=#82b366;" parent="WIyWlLk6GJQsqaUBKTNV-1" vertex="1">
          <mxGeometry x="-135.75" y="519" width="85.75" height="50.5" as="geometry" />
        </mxCell>
        <mxCell id="-ukS8XNGeBA5nCXOuDTJ-3" value="c" style="rounded=1;whiteSpace=wrap;html=1;" parent="WIyWlLk6GJQsqaUBKTNV-1" vertex="1">
          <mxGeometry x="86.75" y="-200" width="270" height="160" as="geometry" />
        </mxCell>
        <mxCell id="-ukS8XNGeBA5nCXOuDTJ-4" value="&lt;b&gt;MB Actor&lt;/b&gt;&lt;b&gt;&lt;br&gt;&lt;/b&gt;" style="rounded=0;whiteSpace=wrap;html=1;fillColor=#fff2cc;strokeColor=#d6b656;" parent="WIyWlLk6GJQsqaUBKTNV-1" vertex="1">
          <mxGeometry x="96.75" y="-183" width="120" height="57" as="geometry" />
        </mxCell>
        <mxCell id="-ukS8XNGeBA5nCXOuDTJ-5" value="&lt;b&gt;MB Critic&lt;/b&gt;&lt;b&gt;&lt;br&gt;&lt;/b&gt;" style="rounded=0;whiteSpace=wrap;html=1;fillColor=#fff2cc;strokeColor=#d6b656;" parent="WIyWlLk6GJQsqaUBKTNV-1" vertex="1">
          <mxGeometry x="226.75" y="-183" width="120" height="57" as="geometry" />
        </mxCell>
        <mxCell id="-ukS8XNGeBA5nCXOuDTJ-6" value="&lt;b&gt;MB Buffer (Real + Virtual)&lt;/b&gt;" style="rounded=0;whiteSpace=wrap;html=1;fillColor=#fff2cc;strokeColor=#d6b656;" parent="WIyWlLk6GJQsqaUBKTNV-1" vertex="1">
          <mxGeometry x="138.75" y="-110.5" width="177.75" height="60" as="geometry" />
        </mxCell>
        <mxCell id="-ukS8XNGeBA5nCXOuDTJ-8" value="Text" style="text;html=1;strokeColor=none;fillColor=none;align=center;verticalAlign=middle;whiteSpace=wrap;rounded=0;" parent="WIyWlLk6GJQsqaUBKTNV-1" vertex="1">
          <mxGeometry x="-135.75" y="430" width="60" height="30" as="geometry" />
        </mxCell>
      </root>
    </mxGraphModel>
  </diagram>
</mxfile>
